<?xml version="1.0" standalone="no"?>
<!DOCTYPE svg PUBLIC "-//W3C//DTD SVG 20010904//EN"
 "http://www.w3.org/TR/2001/REC-SVG-20010904/DTD/svg10.dtd">
<svg version="1.0" xmlns="http://www.w3.org/2000/svg"
 width="300.000000pt" height="301.000000pt" viewBox="0 0 300.000000 301.000000"
 preserveAspectRatio="xMidYMid meet">
<metadata>
Created by potrace 1.10, written by Peter Selinger 2001-2011
</metadata>
<g transform="translate(0.000000,301.000000) scale(0.100000,-0.100000)"
fill="#000000" stroke="none">
<path d="M1793 2314 c-49 -24 -95 -67 -135 -124 l-18 -25 6 28 c17 78 -24 107
-153 107 -106 0 -178 -17 -274 -65 -76 -39 -179 -132 -223 -202 -14 -24 -28
-43 -31 -43 -3 0 -15 10 -26 21 -47 47 -163 3 -202 -76 -23 -47 -34 -877 -13
-954 19 -68 75 -128 132 -141 21 -5 126 -10 232 -10 105 0 192 -4 192 -9 0
-12 -50 -60 -89 -85 -19 -11 -40 -30 -48 -42 -12 -18 -11 -24 8 -47 l20 -27
309 0 309 0 20 29 21 29 -26 32 c-15 17 -41 37 -60 45 -18 7 -40 27 -49 44
l-16 31 193 0 c218 1 255 6 307 48 72 58 71 50 71 544 0 384 -2 444 -15 465
-22 32 -42 39 -64 19 -28 -26 -31 -19 -9 25 11 24 22 73 25 116 5 67 4 76 -17
98 -13 14 -29 25 -35 25 -7 0 -45 -31 -86 -70 -40 -38 -81 -70 -89 -70 -17 0
-90 69 -90 86 0 5 25 34 56 64 113 111 106 160 -23 160 -43 0 -73 -7 -110 -26z
m187 -21 c0 -5 -39 -45 -87 -90 l-87 -82 60 -68 c87 -97 99 -97 197 7 43 44
79 80 82 80 11 0 4 -120 -10 -167 -20 -66 -84 -126 -153 -143 -121 -28 -259
59 -298 187 -43 143 72 283 232 283 35 0 64 -3 64 -7z m-364 -45 c4 -4 -4 -33
-18 -65 l-25 -58 -60 3 c-88 5 -192 -25 -261 -76 l-34 -24 -47 51 -48 52 31
23 c47 34 142 78 199 92 54 14 250 15 263 2z m14 -273 c-31 -20 -352 -341
-368 -367 -13 -22 -24 -28 -52 -28 -19 0 -49 -4 -67 -9 -41 -12 -47 -4 -23 27
17 21 19 34 14 86 -8 82 10 166 52 242 28 51 44 68 95 98 70 42 157 66 240 66
46 0 61 5 83 25 14 13 27 30 28 37 1 7 4 -27 8 -77 5 -75 3 -92 -10 -100z
m-468 -14 c-50 -69 -67 -132 -66 -247 l1 -101 -35 -19 c-18 -10 -42 -28 -52
-41 -10 -13 -20 -23 -23 -23 -2 0 -9 19 -15 43 -43 169 -13 342 80 472 l41 57
49 -50 50 -49 -30 -42z m-234 22 c-2 -5 -10 -25 -18 -45 -9 -24 -21 -38 -31
-38 -10 0 -25 -7 -33 -16 -14 -13 -16 -63 -16 -388 0 -299 3 -376 13 -385 20
-16 1254 -16 1273 0 11 9 14 73 14 350 l0 339 33 44 c17 25 35 45 40 45 4 1 7
-204 7 -454 0 -503 1 -497 -63 -535 -31 -19 -55 -20 -670 -20 l-637 0 -38 34
-37 34 -3 473 c-2 337 1 481 9 501 16 39 66 68 117 68 24 0 42 -3 40 -7z m795
-119 l75 -72 -188 -187 -188 -188 -21 40 c-19 39 -75 103 -89 103 -4 0 -14 5
-22 10 -12 8 20 45 165 189 99 99 183 178 186 178 4 -1 41 -34 82 -73z m-805
-51 c-10 -61 -4 -173 13 -235 11 -41 41 -68 77 -68 l24 0 -22 -37 c-62 -105
-17 -248 97 -307 l48 -25 -140 2 -140 2 -3 344 c-2 341 -2 345 19 367 12 13
25 21 29 19 4 -2 3 -30 -2 -62z m1188 8 c-14 -25 -16 -79 -16 -351 0 -252 -3
-322 -13 -326 -7 -2 -96 -3 -197 -2 l-185 3 60 30 c36 18 88 58 130 100 112
111 165 234 165 381 0 69 -1 73 -32 100 -18 15 -28 29 -22 31 6 2 35 18 65 37
30 18 55 31 57 30 2 -1 -4 -16 -12 -33z m-213 -52 c-36 -13 -51 -44 -62 -128
-12 -90 -42 -157 -93 -210 -47 -48 -143 -91 -226 -99 -47 -5 -78 -14 -92 -27
-20 -18 -20 -18 -20 21 0 45 5 53 44 75 31 18 308 289 363 355 33 41 35 42 69
31 29 -9 32 -12 17 -18z m115 -126 c-14 -251 -172 -432 -421 -480 -93 -18
-197 -12 -197 12 0 8 5 17 11 21 6 3 19 26 29 50 l19 44 54 0 c95 0 220 58
280 130 61 73 108 218 91 284 -6 24 -4 25 58 29 34 2 67 4 72 5 5 1 6 -41 4
-95z m-722 -133 c116 -72 99 -261 -29 -309 -37 -14 -103 -14 -130 0 -89 46
-129 147 -93 233 15 36 71 86 108 98 36 11 108 0 144 -22z m84 -294 c-5 -15
-10 -38 -10 -52 0 -23 -3 -24 -62 -24 l-63 0 52 30 c29 16 60 41 70 54 22 30
27 27 13 -8z m291 -428 c5 -7 9 -25 9 -40 0 -24 4 -28 30 -28 37 0 85 -23 93
-45 6 -13 -30 -15 -313 -15 -210 0 -320 3 -320 10 0 18 63 50 98 50 25 0 32 4
32 19 0 11 4 30 9 43 9 23 9 23 181 21 131 -1 175 -5 181 -15z"/>
<path d="M1440 1030 c-39 -39 -14 -100 42 -100 53 0 79 74 36 104 -30 21 -54
20 -78 -4z"/>
<path d="M1146 1429 c-59 -47 -15 -149 59 -135 63 13 86 86 40 131 -30 30 -64
32 -99 4z m72 -41 c14 -14 -2 -48 -22 -48 -20 0 -39 27 -32 45 6 18 37 20 54
3z"/>
</g>
</svg>
